<svg xmlns="http://www.w3.org/2000/svg" width="495" height="165" viewBox="0 0 495 165">
<rect width="494" height="164" rx="10" fill="#161B22" stroke="#30363D"/>
<text x="26" y="32" fill="#F0F6FC" font-size="18" font-family="Segoe UI,Arial" font-weight="700">Top Languages</text>
<text x="26" y="55" fill="#8B949E" font-size="12" font-family="Segoe UI,Arial">Aggregated from public repositories</text>
<text x="26" y="78" fill="#F0F6FC" font-size="12" font-family="Segoe UI,Arial">JavaScript</text><text x="461" y="78" text-anchor="end" fill="#8B949E" font-size="11" font-family="Segoe UI,Arial">42.0%</text><rect x="26" y="87" width="435" height="6" rx="3" fill="#30363D"/><rect x="26" y="87" width="182.8" height="6" rx="3" fill="#58A6FF"/><text x="26" y="103" fill="#F0F6FC" font-size="12" font-family="Segoe UI,Arial">Python</text><text x="461" y="103" text-anchor="end" fill="#8B949E" font-size="11" font-family="Segoe UI,Arial">32.1%</text><rect x="26" y="112" width="435" height="6" rx="3" fill="#30363D"/><rect x="26" y="112" width="139.8" height="6" rx="3" fill="#A371F7"/><text x="26" y="128" fill="#F0F6FC" font-size="12" font-family="Segoe UI,Arial">TypeScript</text><text x="461" y="128" text-anchor="end" fill="#8B949E" font-size="11" font-family="Segoe UI,Arial">12.9%</text><rect x="26" y="137" width="435" height="6" rx="3" fill="#30363D"/><rect x="26" y="137" width="56.1" height="6" rx="3" fill="#3FB950"/><text x="26" y="153" fill="#F0F6FC" font-size="12" font-family="Segoe UI,Arial">CSS</text><text x="461" y="153" text-anchor="end" fill="#8B949E" font-size="11" font-family="Segoe UI,Arial">9.4%</text><rect x="26" y="162" width="435" height="6" rx="3" fill="#30363D"/><rect x="26" y="162" width="41.1" height="6" rx="3" fill="#D29922"/><text x="26" y="178" fill="#F0F6FC" font-size="12" font-family="Segoe UI,Arial">Batchfile</text><text x="461" y="178" text-anchor="end" fill="#8B949E" font-size="11" font-family="Segoe UI,Arial">1.9%</text><rect x="26" y="187" width="435" height="6" rx="3" fill="#30363D"/><rect x="26" y="187" width="8.1" height="6" rx="3" fill="#F85149"/><text x="26" y="203" fill="#F0F6FC" font-size="12" font-family="Segoe UI,Arial">Kotlin</text><text x="461" y="203" text-anchor="end" fill="#8B949E" font-size="11" font-family="Segoe UI,Arial">1.6%</text><rect x="26" y="212" width="435" height="6" rx="3" fill="#30363D"/><rect x="26" y="212" width="8.0" height="6" rx="3" fill="#79C0FF"/>
</svg>